REM MD5 be9c7799c63d9b8e305a899e583ccdb3
FILE "Blockbuster Playstation Challenge (Europe).bin" BINARY
  TRACK 01 MODE2/2352
    INDEX 01 00:00:00
  TRACK 02 AUDIO
    INDEX 00 01:22:08
    INDEX 01 01:24:08
  TRACK 03 AUDIO
    INDEX 00 06:33:27
    INDEX 01 06:35:27
  TRACK 04 AUDIO
    INDEX 00 06:47:28
    INDEX 01 06:49:28
REM LEADOUT 10:06:58
